<svg width="6" height="11" viewBox="0 0 6 11" fill="none" xmlns="http://www.w3.org/2000/svg">
<path d="M0.325554 11.0001C0.403395 11.0006 0.478242 10.9702 0.53367 10.9155L5.40154 6.22144C5.49706 6.12948 5.57305 6.01919 5.62496 5.89718C5.67686 5.77516 5.70361 5.64393 5.70361 5.51133C5.70361 5.37873 5.67686 5.2475 5.62496 5.12548C5.57305 5.00347 5.49706 4.89318 5.40154 4.80122L0.53367 0.112878C0.507136 0.0796188 0.473822 0.0523924 0.435946 0.0330111C0.39807 0.0136299 0.3565 0.00253833 0.314003 0.000474697C0.271506 -0.00158893 0.229058 0.00542269 0.189482 0.0210429C0.149906 0.0366631 0.11411 0.0605336 0.0844789 0.0910657C0.0548472 0.121598 0.0320587 0.158091 0.0176296 0.198117C0.00320053 0.238142 -0.00253725 0.280782 0.000797272 0.323198C0.00413179 0.365614 0.0164618 0.406833 0.0369678 0.444113C0.0574737 0.481392 0.0856853 0.513876 0.119724 0.539403L4.98416 5.23346C5.02144 5.2695 5.05109 5.31268 5.07133 5.36041C5.09158 5.40815 5.10201 5.45948 5.10201 5.51133C5.10201 5.56318 5.09158 5.61451 5.07133 5.66224C5.05109 5.70998 5.02144 5.75316 4.98416 5.7892L0.119724 10.4833C0.0768723 10.5247 0.0473113 10.578 0.0347962 10.6363C0.0222812 10.6946 0.0273781 10.7553 0.0494375 10.8107C0.071497 10.8661 0.109523 10.9136 0.158687 10.9474C0.207851 10.9811 0.265934 10.9995 0.325554 11.0001Z" fill="#414141"/>
</svg>
