<svg width="6" height="11" viewBox="0 0 6 11" fill="none" xmlns="http://www.w3.org/2000/svg">
<path d="M5.37806 11.0001C5.30022 11.0006 5.22537 10.9702 5.16994 10.9155L0.302075 6.22144C0.20655 6.12948 0.130561 6.01919 0.0786571 5.89718C0.0267527 5.77516 0 5.64393 0 5.51133C0 5.37873 0.0267527 5.2475 0.0786571 5.12548C0.130561 5.00347 0.20655 4.89318 0.302075 4.80122L5.16994 0.112878C5.19648 0.0796188 5.22979 0.0523924 5.26767 0.0330111C5.30554 0.0136299 5.34711 0.00253833 5.38961 0.000474697C5.43211 -0.00158893 5.47456 0.00542269 5.51413 0.0210429C5.55371 0.0366631 5.5895 0.0605336 5.61913 0.0910657C5.64877 0.121598 5.67155 0.158091 5.68598 0.198117C5.70041 0.238142 5.70615 0.280782 5.70282 0.323198C5.69948 0.365614 5.68715 0.406833 5.66665 0.444113C5.64614 0.481392 5.61793 0.513876 5.58389 0.539403L0.719452 5.23346C0.682172 5.2695 0.652527 5.31268 0.63228 5.36041C0.612033 5.40815 0.601599 5.45948 0.601599 5.51133C0.601599 5.56318 0.612033 5.61451 0.63228 5.66224C0.652527 5.70998 0.682172 5.75316 0.719452 5.7892L5.58389 10.4833C5.62674 10.5247 5.6563 10.578 5.66882 10.6363C5.68133 10.6946 5.67624 10.7553 5.65418 10.8107C5.63212 10.8661 5.59409 10.9136 5.54493 10.9474C5.49576 10.9811 5.43768 10.9995 5.37806 11.0001Z" fill="#414141"/>
</svg>
